name analog
datacolumns 19
datarows 74
range 0.197 0.2335
endheader
time	ground_force_vx	ground_force_vy	ground_force_vz	ground_force_px	ground_force_py	ground_force_pz	l_ground_force_vx	l_ground_force_vy	l_ground_force_vz	l_ground_force_px	l_ground_force_py	l_ground_force_pz	ground_torque_x	ground_torque_y	ground_torque_z	l_ground_torque_x	l_ground_torque_y	l_ground_torque_z
0.197	-0.0	-0.0	-0.0	-24.42804718017578	28.62647819519043	-549.2694702148438	13.497241973876951	-53.97769927978516	-513.8472290039062	-0.0	-0.0	-0.0	-0.0	-0.0	-0.0	144477.953125	26431.78125	680.3692626953125
0.1975	-0.0	-0.0	-0.0	-23.509700775146484	29.559762954711918	-569.7200927734375	14.541894912719728	-51.13825988769531	-494.9842529296875	-0.0	-0.0	-0.0	-0.0	-0.0	-0.0	139808.96875	26135.9140625	980.7296752929688
0.198	-0.0	-0.0	-0.0	-22.602048873901367	29.916053771972656	-590.037841796875	15.346965789794922	-47.55057907104492	-475.4073181152344	-0.0	-0.0	-0.0	-0.0	-0.0	-0.0	134010.609375	25826.576171875	1388.544921875
0.1985	-0.0	-0.0	-0.0	-21.588943481445312	30.17526626586914	-610.1050415039062	15.565059661865234	-43.88913345336914	-453.0631103515625	-0.0	-0.0	-0.0	-0.0	-0.0	-0.0	128430.203125	25278.416015625	1546.985595703125
0.199	-0.0	-0.0	-0.0	-20.51034927368164	29.510223388671875	-631.808837890625	16.13166046142578	-39.43239974975586	-430.3165893554688	-0.0	-0.0	-0.0	-0.0	-0.0	-0.0	121764.4453125	24552.080078125	1833.7545166015625
0.1995	-0.0	-0.0	-0.0	-19.7073974609375	29.291427612304688	-650.3966064453125	15.858503341674805	-35.26787185668945	-404.131591796875	-0.0	-0.0	-0.0	-0.0	-0.0	-0.0	114097.171875	23689.380859375	1804.89599609375
0.2	-0.0	-0.0	-0.0	-18.028722763061523	28.95918846130371	-670.3966064453125	15.790519714355469	-31.17755508422852	-377.1661682128906	-0.0	-0.0	-0.0	-0.0	-0.0	-0.0	106580.515625	22837.12890625	1988.46728515625
0.2005	-0.0	-0.0	-0.0	-16.771575927734375	28.772661209106445	-690.0429077148438	15.94688606262207	-27.054386138916016	-345.9639587402344	-0.0	-0.0	-0.0	-0.0	-0.0	-0.0	98083.8359375	21711.201171875	2258.9365234375
0.201	-0.0	-0.0	-0.0	-15.620142936706545	29.396440505981445	-713.9326171875	15.52438735961914	-22.40887451171875	-316.8478698730469	-0.0	-0.0	-0.0	-0.0	-0.0	-0.0	89285.625	20489.42578125	2457.9873046875
0.2015	-0.0	-0.0	-0.0	-14.460478782653809	29.438138961791992	-733.8416137695312	14.97780704498291	-19.194311141967773	-284.8121337890625	-0.0	-0.0	-0.0	-0.0	-0.0	-0.0	80569.734375	19492.197265625	2371.719482421875
0.202	-0.0	-0.0	-0.0	-13.390010833740234	29.939388275146484	-757.8098754882812	12.817644119262695	-15.941004753112791	-253.7112579345703	-0.0	-0.0	-0.0	-0.0	-0.0	-0.0	71675.6171875	17710.787109375	2175.3671875
0.2025	-0.0	-0.0	-0.0	-12.536273956298828	31.187166213989254	-780.9653930664062	11.340456008911133	-13.093300819396973	-223.5937957763672	-0.0	-0.0	-0.0	-0.0	-0.0	-0.0	63295.09375	16137.609375	1876.002685546875
0.203	-0.0	-0.0	-0.0	-11.194085121154783	33.088134765625	-803.95361328125	8.989128112792969	-10.701529502868652	-195.14414978027344	-0.0	-0.0	-0.0	-0.0	-0.0	-0.0	55991.8359375	14692.0986328125	1318.703369140625
0.20350000000000001	-0.0	-0.0	-0.0	-10.23337459564209	34.53957748413086	-827.3983154296875	6.764193534851074	-8.839527130126953	-170.99696350097656	-0.0	-0.0	-0.0	-0.0	-0.0	-0.0	48907.4453125	13399.564453125	847.9881591796875
0.20400000000000001	-0.0	-0.0	-0.0	-9.35841941833496	36.606571197509766	-853.0076904296875	5.292791843414307	-8.029842376708984	-148.33404541015625	-0.0	-0.0	-0.0	-0.0	-0.0	-0.0	41926.23828125	11780.486328125	743.3255615234375
0.20450000000000002	-0.0	-0.0	-0.0	-7.965930938720703	38.4064826965332	-876.9878540039062	5.218914031982422	-6.808248043060303	-122.2677993774414	-0.0	-0.0	-0.0	-0.0	-0.0	-0.0	35700.875	9889.4384765625	840.110595703125
0.20500000000000002	-0.0	-0.0	-0.0	-6.96721887588501	38.87843704223633	-901.3547973632812	6.141551494598389	-5.748454570770264	-103.14885711669922	-0.0	-0.0	-0.0	-0.0	-0.0	-0.0	29193.279296875	8519.8525390625	1246.263427734375
0.20550000000000002	-0.0	-0.0	-0.0	-6.414284706115723	40.2509994506836	-925.7919921875	6.468236923217773	-5.122657775878906	-84.4645767211914	-0.0	-0.0	-0.0	-0.0	-0.0	-0.0	23939.921875	7020.78759765625	1550.9456787109375
0.20600000000000002	-0.0	-0.0	-0.0	-5.183137893676758	41.59714126586914	-947.7581787109376	6.718899250030518	-4.262460231781006	-65.18486022949219	-0.0	-0.0	-0.0	-0.0	-0.0	-0.0	18674.970703125	5436.37939453125	1770.65283203125
0.20650000000000002	-0.0	-0.0	-0.0	-4.273108959197998	42.22983551025391	-969.4076538085938	6.194208145141602	-3.805571794509888	-50.40021133422852	-0.0	-0.0	-0.0	-0.0	-0.0	-0.0	14781.6201171875	4305.92919921875	1743.219482421875
0.20700000000000002	-0.0	-0.0	-0.0	-3.586556911468506	42.88984680175781	-992.6810913085938	5.194706916809082	-3.371846914291382	-34.72040939331055	-0.0	-0.0	-0.0	-0.0	-0.0	-0.0	10508.0283203125	2965.26416015625	1561.9140625
0.20750000000000002	-0.0	-0.0	-0.0	-3.389999389648437	43.61007690429688	-1011.3267211914062	4.540054798126221	-2.7948226928710938	-25.201122283935547	-0.0	-0.0	-0.0	-0.0	-0.0	-0.0	7890.5908203125	2341.283203125	1321.5457763671875
0.20800000000000002	-0.0	-0.0	-0.0	-3.950086832046509	43.67389678955078	-1030.8592529296875	-0.0	-0.0	-0.0	-0.0	-0.0	-0.0	-0.0	-0.0	-0.0	-0.0	-0.0	-0.0
0.2085	-0.0	-0.0	-0.0	-3.16864275932312	43.5200424194336	-1044.31640625	-0.0	-0.0	-0.0	-0.0	-0.0	-0.0	-0.0	-0.0	-0.0	-0.0	-0.0	-0.0
0.209	-0.0	-0.0	-0.0	-3.6669533252716064	42.054935455322266	-1058.2379150390625	-0.0	-0.0	-0.0	-0.0	-0.0	-0.0	-0.0	-0.0	-0.0	-0.0	-0.0	-0.0
0.2095	-0.0	-0.0	-0.0	-4.925368309020996	40.48397445678711	-1070.1724853515625	-0.0	-0.0	-0.0	-0.0	-0.0	-0.0	-0.0	-0.0	-0.0	-0.0	-0.0	-0.0
0.21	-0.0	-0.0	-0.0	-7.4369683265686035	38.7675895690918	-1078.92724609375	-0.0	-0.0	-0.0	-0.0	-0.0	-0.0	-0.0	-0.0	-0.0	-0.0	-0.0	-0.0
0.2105	-0.0	-0.0	-0.0	-8.892492294311523	36.92852020263672	-1084.5777587890625	-0.0	-0.0	-0.0	-0.0	-0.0	-0.0	-0.0	-0.0	-0.0	-0.0	-0.0	-0.0
0.211	-0.0	-0.0	-0.0	-10.03282642364502	35.71924591064453	-1084.33837890625	-0.0	-0.0	-0.0	-0.0	-0.0	-0.0	-0.0	-0.0	-0.0	-0.0	-0.0	-0.0
0.2115	-0.0	-0.0	-0.0	-11.508155822753906	34.48383712768555	-1084.96875	-0.0	-0.0	-0.0	-0.0	-0.0	-0.0	-0.0	-0.0	-0.0	-0.0	-0.0	-0.0
0.212	-0.0	-0.0	-0.0	-13.263228416442873	33.07708740234375	-1082.020751953125	-0.0	-0.0	-0.0	-0.0	-0.0	-0.0	-0.0	-0.0	-0.0	-0.0	-0.0	-0.0
0.2125	-0.0	-0.0	-0.0	-14.789384841918944	31.73042297363281	-1076.7247314453125	-0.0	-0.0	-0.0	-0.0	-0.0	-0.0	-0.0	-0.0	-0.0	-0.0	-0.0	-0.0
0.213	-0.0	-0.0	-0.0	-16.216657638549805	30.66009521484375	-1068.444091796875	-0.0	-0.0	-0.0	-0.0	-0.0	-0.0	-0.0	-0.0	-0.0	-0.0	-0.0	-0.0
0.2135	-0.0	-0.0	-0.0	-16.74187469482422	31.13618469238281	-1063.3072509765625	-0.0	-0.0	-0.0	-0.0	-0.0	-0.0	-0.0	-0.0	-0.0	-0.0	-0.0	-0.0
0.214	-0.0	-0.0	-0.0	-17.63383674621582	31.126388549804688	-1053.378173828125	-0.0	-0.0	-0.0	-0.0	-0.0	-0.0	-0.0	-0.0	-0.0	-0.0	-0.0	-0.0
0.2145	-0.0	-0.0	-0.0	-18.138851165771484	31.53214836120605	-1045.8055419921875	-0.0	-0.0	-0.0	-0.0	-0.0	-0.0	-0.0	-0.0	-0.0	-0.0	-0.0	-0.0
0.215	-0.0	-0.0	-0.0	-18.14850234985352	32.70927429199219	-1038.3890380859375	-0.0	-0.0	-0.0	-0.0	-0.0	-0.0	-0.0	-0.0	-0.0	-0.0	-0.0	-0.0
0.2155	-0.0	-0.0	-0.0	-18.81327247619629	33.373226165771484	-1031.205078125	-0.0	-0.0	-0.0	-0.0	-0.0	-0.0	-0.0	-0.0	-0.0	-0.0	-0.0	-0.0
0.216	-0.0	-0.0	-0.0	-19.6160945892334	34.490718841552734	-1024.3726806640625	-0.0	-0.0	-0.0	-0.0	-0.0	-0.0	-0.0	-0.0	-0.0	-0.0	-0.0	-0.0
0.2165	-0.0	-0.0	-0.0	-19.76689338684082	34.79866409301758	-1014.2643432617188	-0.0	-0.0	-0.0	-0.0	-0.0	-0.0	-0.0	-0.0	-0.0	-0.0	-0.0	-0.0
0.217	-0.0	-0.0	-0.0	-20.140892028808597	34.421142578125	-1006.9978637695312	-0.0	-0.0	-0.0	-0.0	-0.0	-0.0	-0.0	-0.0	-0.0	-0.0	-0.0	-0.0
0.2175	-0.0	-0.0	-0.0	-20.03070640563965	34.283992767333984	-999.787841796875	-0.0	-0.0	-0.0	-0.0	-0.0	-0.0	-0.0	-0.0	-0.0	-0.0	-0.0	-0.0
0.218	-0.0	-0.0	-0.0	-19.925355911254883	33.0096321105957	-994.9492797851562	-0.0	-0.0	-0.0	-0.0	-0.0	-0.0	-0.0	-0.0	-0.0	-0.0	-0.0	-0.0
0.2185	-0.0	-0.0	-0.0	-18.959686279296875	32.889122009277344	-990.1719970703124	-0.0	-0.0	-0.0	-0.0	-0.0	-0.0	-0.0	-0.0	-0.0	-0.0	-0.0	-0.0
0.219	-0.0	-0.0	-0.0	-17.60630226135254	32.05514144897461	-988.3235473632812	-0.0	-0.0	-0.0	-0.0	-0.0	-0.0	-0.0	-0.0	-0.0	-0.0	-0.0	-0.0
0.2195	-0.0	-0.0	-0.0	-17.092546463012695	31.495006561279297	-984.8345947265624	-0.0	-0.0	-0.0	-0.0	-0.0	-0.0	-0.0	-0.0	-0.0	-0.0	-0.0	-0.0
0.22	-0.0	-0.0	-0.0	-16.057891845703125	31.463031768798828	-981.6146240234376	-0.0	-0.0	-0.0	-0.0	-0.0	-0.0	-0.0	-0.0	-0.0	-0.0	-0.0	-0.0
0.2205	-0.0	-0.0	-0.0	-15.376630783081056	31.038976669311523	-980.2991333007812	-0.0	-0.0	-0.0	-0.0	-0.0	-0.0	-0.0	-0.0	-0.0	-0.0	-0.0	-0.0
0.221	-0.0	-0.0	-0.0	-14.306248664855955	30.87165641784668	-976.938720703125	-0.0	-0.0	-0.0	-0.0	-0.0	-0.0	-0.0	-0.0	-0.0	-0.0	-0.0	-0.0
0.2215	-0.0	-0.0	-0.0	-14.00605010986328	30.83911895751953	-974.560302734375	-0.0	-0.0	-0.0	-0.0	-0.0	-0.0	-0.0	-0.0	-0.0	-0.0	-0.0	-0.0
0.222	-0.0	-0.0	-0.0	-13.78236198425293	31.16271209716797	-970.4514770507812	-0.0	-0.0	-0.0	-0.0	-0.0	-0.0	-0.0	-0.0	-0.0	-0.0	-0.0	-0.0
0.2225	-0.0	-0.0	-0.0	-14.41972541809082	31.240596771240234	-967.0067138671876	-0.0	-0.0	-0.0	-0.0	-0.0	-0.0	-0.0	-0.0	-0.0	-0.0	-0.0	-0.0
0.223	-0.0	-0.0	-0.0	-14.028303146362305	31.340553283691406	-961.7530517578124	-0.0	-0.0	-0.0	-0.0	-0.0	-0.0	-0.0	-0.0	-0.0	-0.0	-0.0	-0.0
0.2235	-0.0	-0.0	-0.0	-13.90566635131836	30.883771896362305	-956.9420776367188	-0.0	-0.0	-0.0	-0.0	-0.0	-0.0	-0.0	-0.0	-0.0	-0.0	-0.0	-0.0
0.224	-0.0	-0.0	-0.0	-14.707728385925291	30.81664657592773	-960.0321655273438	-0.0	-0.0	-0.0	-0.0	-0.0	-0.0	-0.0	-0.0	-0.0	-0.0	-0.0	-0.0
0.2245	-0.0	-0.0	-0.0	-14.507431030273438	30.414894104003903	-960.604736328125	-0.0	-0.0	-0.0	-0.0	-0.0	-0.0	-0.0	-0.0	-0.0	-0.0	-0.0	-0.0
0.225	-0.0	-0.0	-0.0	-13.950922966003418	31.840578079223636	-963.0767211914062	-0.0	-0.0	-0.0	-0.0	-0.0	-0.0	-0.0	-0.0	-0.0	-0.0	-0.0	-0.0
0.2255	-0.0	-0.0	-0.0	-13.470787048339844	32.48916244506836	-966.6445922851562	-0.0	-0.0	-0.0	-0.0	-0.0	-0.0	-0.0	-0.0	-0.0	-0.0	-0.0	-0.0
0.226	-0.0	-0.0	-0.0	-13.082188606262209	34.84999084472656	-969.4334106445312	-0.0	-0.0	-0.0	-0.0	-0.0	-0.0	-0.0	-0.0	-0.0	-0.0	-0.0	-0.0
0.2265	-0.0	-0.0	-0.0	-12.334165573120115	36.969268798828125	-971.1533813476562	-0.0	-0.0	-0.0	-0.0	-0.0	-0.0	-0.0	-0.0	-0.0	-0.0	-0.0	-0.0
0.227	-0.0	-0.0	-0.0	-11.08919906616211	39.92659378051758	-974.2392578125	-0.0	-0.0	-0.0	-0.0	-0.0	-0.0	-0.0	-0.0	-0.0	-0.0	-0.0	-0.0
0.2275	-0.0	-0.0	-0.0	-10.472662925720217	41.95708847045898	-974.3014526367188	-0.0	-0.0	-0.0	-0.0	-0.0	-0.0	-0.0	-0.0	-0.0	-0.0	-0.0	-0.0
0.228	-0.0	-0.0	-0.0	-9.484610557556152	44.018680572509766	-974.5630493164062	-0.0	-0.0	-0.0	-0.0	-0.0	-0.0	-0.0	-0.0	-0.0	-0.0	-0.0	-0.0
0.2285	-0.0	-0.0	-0.0	-9.235876083374023	46.840614318847656	-976.0025024414062	-0.0	-0.0	-0.0	-0.0	-0.0	-0.0	-0.0	-0.0	-0.0	-0.0	-0.0	-0.0
0.229	-0.0	-0.0	-0.0	-8.433249473571777	48.79603958129883	-974.5886840820312	-0.0	-0.0	-0.0	-0.0	-0.0	-0.0	-0.0	-0.0	-0.0	-0.0	-0.0	-0.0
0.2295	-0.0	-0.0	-0.0	-8.082341194152832	50.423954010009766	-975.3187866210938	-0.0	-0.0	-0.0	-0.0	-0.0	-0.0	-0.0	-0.0	-0.0	-0.0	-0.0	-0.0
0.23	-0.0	-0.0	-0.0	-7.322013854980469	50.941402435302734	-977.97607421875	-0.0	-0.0	-0.0	-0.0	-0.0	-0.0	-0.0	-0.0	-0.0	-0.0	-0.0	-0.0
0.2305	-0.0	-0.0	-0.0	-7.570830821990967	51.61855697631836	-981.1339111328124	-0.0	-0.0	-0.0	-0.0	-0.0	-0.0	-0.0	-0.0	-0.0	-0.0	-0.0	-0.0
0.231	-0.0	-0.0	-0.0	-7.481547832489014	52.42506408691406	-985.9342651367188	-0.0	-0.0	-0.0	-0.0	-0.0	-0.0	-0.0	-0.0	-0.0	-0.0	-0.0	-0.0
0.2315	-0.0	-0.0	-0.0	-7.165091037750244	51.96302795410156	-990.7816162109376	-0.0	-0.0	-0.0	-0.0	-0.0	-0.0	-0.0	-0.0	-0.0	-0.0	-0.0	-0.0
0.232	-0.0	-0.0	-0.0	-6.47557258605957	51.63101577758789	-994.2015380859376	-0.0	-0.0	-0.0	-0.0	-0.0	-0.0	-0.0	-0.0	-0.0	-0.0	-0.0	-0.0
0.2325	-0.0	-0.0	-0.0	-6.0909600257873535	51.17316436767578	-999.5480346679688	-0.0	-0.0	-0.0	-0.0	-0.0	-0.0	-0.0	-0.0	-0.0	-0.0	-0.0	-0.0
0.233	-0.0	-0.0	-0.0	-4.765295028686523	51.06916809082031	-1001.971435546875	-0.0	-0.0	-0.0	-0.0	-0.0	-0.0	-0.0	-0.0	-0.0	-0.0	-0.0	-0.0
0.2335	-0.0	-0.0	-0.0	-3.937714576721192	50.920387268066406	-1004.739501953125	-0.0	-0.0	-0.0	-0.0	-0.0	-0.0	-0.0	-0.0	-0.0	-0.0	-0.0	-0.0
